<svg width="12" height="4" viewBox="0 0 12 4" fill="none" xmlns="http://www.w3.org/2000/svg">
<rect width="12" height="4" fill="#F2F2F2"/>
<g id="Desktop">
<rect width="1440" height="900" transform="translate(-799 -661)" fill="white"/>
<g id="Group 16">
<g id="Group 11">
<g id="Group 8" clip-path="url(#clip0_0_1)">
<g id="Group 7">
<g id="Group 5" clip-path="url(#clip1_0_1)">
<rect id="Rectangle" x="-16" y="-26" width="157" height="56" rx="10" fill="#F6F8FD"/>
<g id="Group 4">
<path id="Mask" d="M11.3571 3.33214C11.7134 3.33214 12 3.04554 12 2.68929V0.642857C12 0.286607 11.7134 0 11.3571 0H0.642857C0.286607 0 0 0.286607 0 0.642857V2.68929C0 3.04554 0.286607 3.33214 0.642857 3.33214H11.3571Z" fill="#FF7E1B"/>
<mask id="mask0_0_1" style="mask-type:luminance" maskUnits="userSpaceOnUse" x="0" y="0" width="12" height="4">
<path id="Mask_2" d="M11.3571 3.33214C11.7134 3.33214 12 3.04554 12 2.68929V0.642857C12 0.286607 11.7134 0 11.3571 0H0.642857C0.286607 0 0 0.286607 0 0.642857V2.68929C0 3.04554 0.286607 3.33214 0.642857 3.33214H11.3571Z" fill="white"/>
</mask>
<g mask="url(#mask0_0_1)">
</g>
</g>
</g>
</g>
</g>
</g>
</g>
</g>
<defs>
<clipPath id="clip0_0_1">
<rect width="445" height="426" fill="white" transform="translate(-16 -396)"/>
</clipPath>
<clipPath id="clip1_0_1">
<rect width="157" height="56" fill="white" transform="translate(-16 -26)"/>
</clipPath>
</defs>
</svg>
